<svg width="22" height="22" viewBox="0 0 22 22" fill="none" xmlns="http://www.w3.org/2000/svg">
<path d="M16.1828 9.64454H15.5146C15.445 8.74422 15.0861 7.92377 14.5313 7.27593L15.0053 6.80194C15.1312 6.67604 15.1312 6.47203 15.0053 6.34617C14.8795 6.22036 14.6755 6.22036 14.5496 6.34617L14.0756 6.82016C13.4277 6.26531 12.6073 5.90652 11.707 5.83691V5.1687C11.707 4.99068 11.5627 4.84644 11.3847 4.84644C11.2067 4.84644 11.0624 4.99068 11.0624 5.1687V5.83691C10.1621 5.90652 9.3417 6.26535 8.69381 6.82016L8.21983 6.34617C8.09397 6.22036 7.88991 6.22036 7.7641 6.34617C7.63824 6.47207 7.63824 6.67609 7.7641 6.80194L8.23809 7.27593C7.68323 7.92381 7.32444 8.74426 7.25483 9.64454H6.58667C6.40869 9.64454 6.2644 9.78879 6.2644 9.96681C6.2644 10.1448 6.40869 10.2891 6.58667 10.2891H7.25483C7.32444 11.1894 7.68323 12.0098 8.23809 12.6577L7.7641 13.1317C7.63824 13.2576 7.63824 13.4616 7.7641 13.5874C7.82701 13.6503 7.90951 13.6818 7.99196 13.6818C8.07442 13.6818 8.15692 13.6503 8.21983 13.5874L8.69381 13.1135C9.3417 13.6683 10.1621 14.0271 11.0624 14.0967V14.7649C11.0624 14.9429 11.2067 15.0872 11.3847 15.0872C11.5627 15.0872 11.707 14.9429 11.707 14.7649V14.0967C12.6073 14.0271 13.4277 13.6683 14.0756 13.1135L14.5496 13.5874C14.6125 13.6503 14.695 13.6818 14.7774 13.6818C14.8599 13.6818 14.9424 13.6503 15.0053 13.5874C15.1311 13.4615 15.1311 13.2575 15.0053 13.1317L14.5313 12.6577C15.0861 12.0099 15.4449 11.1894 15.5145 10.2891H16.1827C16.3607 10.2891 16.505 10.1449 16.505 9.96685C16.505 9.78879 16.3607 9.64454 16.1828 9.64454ZM11.3846 13.4646C9.45595 13.4646 7.88682 11.8955 7.88682 9.96681C7.88682 8.03807 9.45595 6.46898 11.3846 6.46898C13.3134 6.46898 14.8825 8.03811 14.8825 9.96681C14.8825 11.8955 13.3134 13.4646 11.3846 13.4646Z" fill="#4C4C60"/>
<path d="M13.5918 9.64453H13.0241C12.8734 8.87676 12.1957 8.29565 11.3845 8.29565C10.463 8.29565 9.71338 9.04529 9.71338 9.96679C9.71338 10.8882 10.463 11.6379 11.3845 11.6379C12.1957 11.6379 12.8735 11.0568 13.0241 10.2891H13.5918C13.7698 10.2891 13.9141 10.1448 13.9141 9.96679C13.9141 9.78878 13.7698 9.64453 13.5918 9.64453ZM11.3844 10.9934C10.8184 10.9934 10.3579 10.5328 10.3579 9.96679C10.3579 9.40072 10.8184 8.94019 11.3844 8.94019C11.9505 8.94019 12.411 9.40072 12.411 9.96679C12.411 10.5328 11.9505 10.9934 11.3844 10.9934Z" fill="#4C4C60"/>
<path d="M19.5703 0H2.42969C1.65969 0 1.0332 0.626441 1.0332 1.39648V9.26449C1.0332 9.44251 1.17749 9.58676 1.35547 9.58676C1.53345 9.58676 1.67773 9.44251 1.67773 9.26449V8.19637H2.98368V11.7371H1.67773V10.669C1.67773 10.491 1.53345 10.3467 1.35547 10.3467C1.17749 10.3467 1.0332 10.491 1.0332 10.669V18.537C1.0332 19.3071 1.65969 19.9335 2.42969 19.9335H2.98368V21.248C2.98368 21.6627 3.32103 22 3.73564 22H5.64195C6.05655 22 6.3939 21.6627 6.3939 21.248V19.9335H15.6061V21.248C15.6061 21.6627 15.9434 22 16.3581 22H18.2644C18.679 22 19.0163 21.6627 19.0163 21.248V19.9335H19.5703C20.3403 19.9335 20.9668 19.3071 20.9668 18.537V16.2165C20.9668 16.0385 20.8225 15.8943 20.6445 15.8943C20.4666 15.8943 20.3223 16.0385 20.3223 16.2165V18.537C20.3223 18.9516 19.9849 19.289 19.5703 19.289H2.42969C2.01508 19.289 1.67773 18.9516 1.67773 18.537V15.8366H2.98368V17.2311C2.98368 17.6457 3.32103 17.983 3.73564 17.983H18.2643C18.6789 17.983 19.0163 17.6457 19.0163 17.2311V12.3817H20.3222V14.812C20.3222 14.99 20.4665 15.1343 20.6445 15.1343C20.8225 15.1343 20.9668 14.99 20.9668 14.812V1.39648C20.9668 0.626441 20.3403 0 19.5703 0ZM5.74937 21.248C5.74937 21.3073 5.70116 21.3555 5.64195 21.3555H3.73564C3.67638 21.3555 3.62822 21.3073 3.62822 21.248V19.9335H5.74937V21.248ZM18.3717 21.248C18.3717 21.3073 18.3236 21.3555 18.2643 21.3555H16.358C16.2988 21.3555 16.2506 21.3073 16.2506 21.248V19.9335H18.3717V21.248ZM1.67773 4.74147H3.30595H3.9922C4.05141 4.74147 4.09963 4.78964 4.09963 4.84889V7.44442C4.09963 7.50368 4.05141 7.55184 3.9922 7.55184H3.30595H1.67773V4.74147ZM1.67773 12.3817H3.30595H3.9922C4.05141 12.3817 4.09963 12.4298 4.09963 12.4891V15.0846C4.09963 15.1439 4.05141 15.192 3.9922 15.192H3.30595H1.67773V12.3817ZM18.3717 17.2311C18.3717 17.2904 18.3236 17.3385 18.2643 17.3385H3.73564C3.67638 17.3385 3.62822 17.2904 3.62822 17.2311V15.8366H3.9922C4.40681 15.8366 4.74416 15.4993 4.74416 15.0846V12.4891C4.74416 12.0745 4.40681 11.7371 3.9922 11.7371H3.62822V8.19637H3.9922C4.40681 8.19637 4.74416 7.85903 4.74416 7.44442V4.84889C4.74416 4.43429 4.40681 4.09694 3.9922 4.09694H3.62822V2.70243C3.62822 2.64318 3.67638 2.59501 3.73564 2.59501H8.24641C8.42439 2.59501 8.56868 2.45077 8.56868 2.27275C8.56868 2.09473 8.42439 1.95048 8.24641 1.95048H3.73564C3.32103 1.95048 2.98368 2.28783 2.98368 2.70243V4.09694H1.67773V1.39648C1.67773 0.981879 2.01508 0.644531 2.42969 0.644531H19.5702C19.9848 0.644531 20.3222 0.981879 20.3222 1.39648V7.55184H19.0162V2.70243C19.0162 2.28783 18.6789 1.95048 18.2643 1.95048H9.65093C9.47295 1.95048 9.32866 2.09473 9.32866 2.27275C9.32866 2.45077 9.47295 2.59501 9.65093 2.59501H18.2643C18.3236 2.59501 18.3717 2.64318 18.3717 2.70243V17.2311ZM19.0163 11.7371V8.19637H20.3222V11.7371H19.0163Z" fill="#4C4C60"/>
</svg>
