<svg width="24" height="24" viewBox="0 0 24 24" fill="none" xmlns="http://www.w3.org/2000/svg">
<g clip-path="url(#clip0_619_245)">
<path d="M20.4526 5.89146L17.3931 0.592152C17.2352 0.318683 16.9795 0.12284 16.673 0.0407616C16.3664 -0.0413634 16.047 0.000355314 15.7736 0.158277L5.8448 5.89067H3.57947C2.20022 5.89067 1.07812 7.01276 1.07812 8.39201V19.3424C1.07812 20.7217 2.20022 21.8438 3.57947 21.8438H4.25873C5.19436 23.1484 6.72342 24 8.44777 24C10.1721 24 11.7012 23.1484 12.6368 21.8438H20.4205C21.7998 21.8438 22.9219 20.7217 22.9219 19.3424V8.39201C22.9219 7.02354 21.8171 5.90881 20.4526 5.89146ZM11.4517 5.89067L17.5525 2.36829L18.0798 3.28156L13.5607 5.89067H11.4517ZM18.4548 3.93106L19.5862 5.89067H15.0607L18.4548 3.93106ZM16.1486 0.80773C16.2486 0.750074 16.3659 0.734887 16.4789 0.765168C16.5918 0.795449 16.6859 0.867168 16.7436 0.967152L17.1775 1.71884L9.9517 5.89071H7.3447L16.1486 0.80773ZM8.44777 23.25C6.02053 23.25 4.04583 21.2753 4.04583 18.848C4.04583 16.4208 6.02053 14.4461 8.44777 14.4461C10.875 14.4461 12.8497 16.4208 12.8497 18.848C12.8497 21.2753 10.875 23.25 8.44777 23.25ZM20.4205 21.0938H13.0839C13.4142 20.4147 13.5997 19.6526 13.5997 18.848C13.5997 16.0072 11.2886 13.6961 8.44777 13.6961C5.60695 13.6961 3.29583 16.0072 3.29583 18.848C3.29583 19.6527 3.48136 20.4147 3.81164 21.0938H3.57947C2.6138 21.0938 1.82812 20.3081 1.82812 19.3424V8.39201C1.82812 7.42629 2.6138 6.64067 3.57947 6.64067H20.4205C21.3862 6.64067 22.1718 7.42634 22.1718 8.39201V11.116H16.3538C14.8367 11.116 13.6025 12.3502 13.6025 13.8672C13.6025 15.3842 14.8367 16.6184 16.3538 16.6184H22.1719V19.3423C22.1719 20.3081 21.3862 21.0938 20.4205 21.0938ZM22.1719 11.866V15.8685H16.3538C15.2503 15.8685 14.3525 14.9708 14.3525 13.8673C14.3525 12.7638 15.2503 11.8661 16.3538 11.8661H22.1719V11.866ZM15.1939 13.8672C15.1939 14.5068 15.7142 15.027 16.3538 15.027C16.9933 15.027 17.5135 14.5067 17.5135 13.8672C17.5135 13.2277 16.9932 12.7074 16.3538 12.7074C15.7142 12.7074 15.1939 13.2277 15.1939 13.8672ZM16.7635 13.8672C16.7635 14.0932 16.5797 14.277 16.3538 14.277C16.1278 14.277 15.9439 14.0932 15.9439 13.8672C15.9439 13.6413 16.1278 13.4574 16.3538 13.4574C16.5797 13.4574 16.7635 13.6413 16.7635 13.8672ZM9.95991 19.3796C9.95972 19.3796 9.95953 19.3796 9.95939 19.3796C9.25458 19.3799 8.6813 19.9535 8.68158 20.6583C8.68172 20.9997 8.8148 21.3207 9.0563 21.5621C9.29766 21.8033 9.61852 21.9361 9.95977 21.9361H9.96023C10.3017 21.936 10.6227 21.8029 10.864 21.5614C11.1053 21.3199 11.2382 20.9989 11.238 20.6575C11.238 20.316 11.1049 19.995 10.8634 19.7537C10.622 19.5124 10.3012 19.3796 9.95991 19.3796ZM10.3335 21.0313C10.2338 21.1311 10.1011 21.1861 9.96 21.1861C9.95991 21.1861 9.95986 21.1861 9.95981 21.1861C9.81877 21.1861 9.68616 21.1312 9.58641 21.0315C9.48656 20.9318 9.43158 20.7992 9.43153 20.658C9.43144 20.3667 9.66834 20.1297 9.95963 20.1296H9.95981C10.1009 20.1296 10.2335 20.1845 10.3333 20.2842C10.4331 20.3839 10.488 20.5166 10.4881 20.6577C10.4881 20.7988 10.4332 20.9315 10.3335 21.0313ZM6.93614 18.3165C7.64095 18.3162 8.21423 17.7426 8.21395 17.0379C8.21386 16.6964 8.08078 16.3754 7.83928 16.1341C7.59788 15.8929 7.27702 15.76 6.93577 15.76C6.93558 15.76 6.93539 15.76 6.93525 15.76C6.23044 15.7603 5.65716 16.3339 5.65744 17.0387C5.65772 17.7434 6.23105 18.3166 6.93577 18.3166C6.93586 18.3165 6.93605 18.3165 6.93614 18.3165ZM6.40739 17.0384C6.4073 16.7471 6.6442 16.5101 6.93548 16.51H6.93567C7.07677 16.51 7.20937 16.5649 7.30912 16.6646C7.40892 16.7643 7.46391 16.8969 7.46395 17.0381C7.46405 17.3294 7.22714 17.5664 6.93591 17.5665C6.93586 17.5665 6.93581 17.5665 6.93577 17.5665C6.64453 17.5665 6.40748 17.3296 6.40739 17.0384ZM10.4724 16.6929L7.08717 21.4076C7.01391 21.5096 6.89892 21.5639 6.78225 21.5639C6.70655 21.5639 6.63009 21.541 6.56386 21.4934C6.39563 21.3727 6.35719 21.1384 6.47798 20.9701L9.86325 16.2554C9.984 16.0872 10.2182 16.0486 10.3866 16.1696C10.5548 16.2903 10.5932 16.5246 10.4724 16.6929Z" fill="#FF5887"/>
</g>
<defs>
<clipPath id="clip0_619_245">
<rect width="24" height="24" fill="white"/>
</clipPath>
</defs>
</svg>
