<svg width="22" height="22" viewBox="0 0 22 22" fill="none" xmlns="http://www.w3.org/2000/svg">
<path d="M18.7917 11.4584H12.8334C12.4687 11.4584 12.119 11.6032 11.8611 11.8611C11.6032 12.119 11.4584 12.4687 11.4584 12.8334V18.7917C11.4584 19.1564 11.6032 19.5061 11.8611 19.764C12.119 20.0218 12.4687 20.1667 12.8334 20.1667H18.7917C19.1564 20.1667 19.5061 20.0218 19.764 19.764C20.0218 19.5061 20.1667 19.1564 20.1667 18.7917V12.8334C20.1667 12.4687 20.0218 12.119 19.764 11.8611C19.5061 11.6032 19.1564 11.4584 18.7917 11.4584ZM19.25 18.7917C19.25 18.9133 19.2018 19.0298 19.1158 19.1158C19.0298 19.2018 18.9133 19.25 18.7917 19.25H12.8334C12.7118 19.25 12.5952 19.2018 12.5093 19.1158C12.4233 19.0298 12.375 18.9133 12.375 18.7917V12.8334C12.375 12.7118 12.4233 12.5952 12.5093 12.5093C12.5952 12.4233 12.7118 12.375 12.8334 12.375H18.7917C18.9133 12.375 19.0298 12.4233 19.1158 12.5093C19.2018 12.5952 19.25 12.7118 19.25 12.8334V18.7917Z" fill="#FF5887"/>
<path d="M10.5417 18.7917V12.8334C10.5417 12.4687 10.3968 12.119 10.139 11.8611C9.88112 11.6032 9.53138 11.4584 9.16671 11.4584H3.20837C2.8437 11.4584 2.49396 11.6032 2.2361 11.8611C1.97824 12.119 1.83337 12.4687 1.83337 12.8334V18.7917C1.83337 19.1564 1.97824 19.5061 2.2361 19.764C2.49396 20.0218 2.8437 20.1667 3.20837 20.1667H9.16671C9.53138 20.1667 9.88112 20.0218 10.139 19.764C10.3968 19.5061 10.5417 19.1564 10.5417 18.7917ZM2.75004 18.7917V12.8334C2.75004 12.7118 2.79833 12.5952 2.88428 12.5093C2.97024 12.4233 3.08682 12.375 3.20837 12.375H9.16671C9.28827 12.375 9.40484 12.4233 9.4908 12.5093C9.57675 12.5952 9.62504 12.7118 9.62504 12.8334V18.7917C9.62504 18.9133 9.57675 19.0298 9.4908 19.1158C9.40484 19.2018 9.28827 19.25 9.16671 19.25H3.20837C3.08682 19.25 2.97024 19.2018 2.88428 19.1158C2.79833 19.0298 2.75004 18.9133 2.75004 18.7917Z" fill="#FF5887"/>
<path d="M19.7084 5.72921H16.2709V2.29171C16.2709 2.17015 16.2226 2.05357 16.1366 1.96762C16.0507 1.88166 15.9341 1.83337 15.8125 1.83337C15.691 1.83337 15.5744 1.88166 15.4885 1.96762C15.4025 2.05357 15.3542 2.17015 15.3542 2.29171V5.72921H11.9167C11.7951 5.72921 11.6786 5.7775 11.5926 5.86345C11.5067 5.9494 11.4584 6.06598 11.4584 6.18754C11.4584 6.3091 11.5067 6.42568 11.5926 6.51163C11.6786 6.59759 11.7951 6.64587 11.9167 6.64587H15.3542V10.0834C15.3542 10.2049 15.4025 10.3215 15.4885 10.4075C15.5744 10.4934 15.691 10.5417 15.8125 10.5417C15.9341 10.5417 16.0507 10.4934 16.1366 10.4075C16.2226 10.3215 16.2709 10.2049 16.2709 10.0834V6.64587H19.7084C19.8299 6.64587 19.9465 6.59759 20.0325 6.51163C20.1184 6.42568 20.1667 6.3091 20.1667 6.18754C20.1667 6.06598 20.1184 5.9494 20.0325 5.86345C19.9465 5.7775 19.8299 5.72921 19.7084 5.72921Z" fill="#FF5887"/>
<path d="M3.20837 10.5417H9.16671C9.53138 10.5417 9.88112 10.3968 10.139 10.139C10.3968 9.88112 10.5417 9.53138 10.5417 9.16671V3.20837C10.5417 2.8437 10.3968 2.49396 10.139 2.2361C9.88112 1.97824 9.53138 1.83337 9.16671 1.83337H3.20837C2.8437 1.83337 2.49396 1.97824 2.2361 2.2361C1.97824 2.49396 1.83337 2.8437 1.83337 3.20837V9.16671C1.83337 9.53138 1.97824 9.88112 2.2361 10.139C2.49396 10.3968 2.8437 10.5417 3.20837 10.5417ZM2.75004 3.20837C2.75004 3.08682 2.79833 2.97024 2.88428 2.88428C2.97024 2.79833 3.08682 2.75004 3.20837 2.75004H9.16671C9.28827 2.75004 9.40484 2.79833 9.4908 2.88428C9.57675 2.97024 9.62504 3.08682 9.62504 3.20837V9.16671C9.62504 9.28827 9.57675 9.40484 9.4908 9.4908C9.40484 9.57675 9.28827 9.62504 9.16671 9.62504H3.20837C3.08682 9.62504 2.97024 9.57675 2.88428 9.4908C2.79833 9.40484 2.75004 9.28827 2.75004 9.16671V3.20837Z" fill="#FF5887"/>
</svg>
