<svg width="60" height="60" viewBox="0 0 60 60" fill="none" xmlns="http://www.w3.org/2000/svg">
<rect width="60" height="60" rx="30" fill="#3EB290"/>
<path d="M33 22H39C40.1046 22 41 22.8954 41 24V36C41 37.1046 40.1046 38 39 38H21C19.8954 38 19 37.1046 19 36V24C19 22.8954 19.8954 22 21 22H27" stroke="white" stroke-width="1.5" stroke-linecap="round" stroke-linejoin="round"/>
<path d="M19 28H27M41 28H33" stroke="white" stroke-width="1.5" stroke-linecap="round" stroke-linejoin="round"/>
<path d="M30.75 19.5C30.75 19.0858 30.4142 18.75 30 18.75C29.5858 18.75 29.25 19.0858 29.25 19.5H30.75ZM29.4697 36.5303C29.7626 36.8232 30.2374 36.8232 30.5303 36.5303L35.3033 31.7574C35.5962 31.4645 35.5962 30.9896 35.3033 30.6967C35.0104 30.4038 34.5355 30.4038 34.2426 30.6967L30 34.9393L25.7574 30.6967C25.4645 30.4038 24.9896 30.4038 24.6967 30.6967C24.4038 30.9896 24.4038 31.4645 24.6967 31.7574L29.4697 36.5303ZM30 19.5H29.25V36H30H30.75V19.5H30Z" fill="white"/>
</svg>
